<?xml version="1.0" encoding="utf-8" standalone="no"?>
<!DOCTYPE svg PUBLIC "-//W3C//DTD SVG 1.1//EN"
  "http://www.w3.org/Graphics/SVG/1.1/DTD/svg11.dtd">
<svg height="345.6pt" version="1.1" viewBox="0 0 460.8 345.6" width="460.8pt" xmlns="http://www.w3.org/2000/svg" xmlns:xlink="http://www.w3.org/1999/xlink">
 <metadata>
  <rdf:RDF xmlns:cc="http://creativecommons.org/ns#" xmlns:dc="http://purl.org/dc/elements/1.1/" xmlns:rdf="http://www.w3.org/1999/02/22-rdf-syntax-ns#">
   <cc:Work>
    <dc:type rdf:resource="http://purl.org/dc/dcmitype/StillImage"/>
    <dc:date>2022-04-21T13:49:03.313494</dc:date>
    <dc:format>image/svg+xml</dc:format>
    <dc:creator>
     <cc:Agent>
      <dc:title>Matplotlib v3.4.3, https://matplotlib.org/</dc:title>
     </cc:Agent>
    </dc:creator>
   </cc:Work>
  </rdf:RDF>
 </metadata>
 <defs>
  <style type="text/css">*{stroke-linecap:butt;stroke-linejoin:round;}</style>
 </defs>
 <g id="figure_1">
  <g id="patch_1">
   <path d="M 0 345.6 
L 460.8 345.6 
L 460.8 0 
L 0 0 
z
" style="fill:#ffffff;"/>
  </g>
  <g id="axes_1">
   <g id="patch_2">
    <path d="M 57.6 307.584 
L 414.72 307.584 
L 414.72 41.472 
L 57.6 41.472 
z
" style="fill:#ffffff;"/>
   </g>
   <g id="matplotlib.axis_1">
    <g id="xtick_1">
     <g id="line2d_1">
      <path clip-path="url(#pf03fe66c67)" d="M 73.832727 307.584 
L 73.832727 41.472 
" style="fill:none;stroke:#b0b0b0;stroke-linecap:square;stroke-width:0.8;"/>
     </g>
     <g id="line2d_2">
      <defs>
       <path d="M 0 0 
L 0 3.5 
" id="m546f94c189" style="stroke:#000000;stroke-width:0.8;"/>
      </defs>
      <g>
       <use style="stroke:#000000;stroke-width:0.8;" x="73.832727" xlink:href="#m546f94c189" y="307.584"/>
      </g>
     </g>
     <g id="text_1">
      <!-- 0 -->
      <g transform="translate(70.015227 323.702125)scale(0.12 -0.12)">
       <defs>
        <path d="M 2034 4250 
Q 1547 4250 1301 3770 
Q 1056 3291 1056 2328 
Q 1056 1369 1301 889 
Q 1547 409 2034 409 
Q 2525 409 2770 889 
Q 3016 1369 3016 2328 
Q 3016 3291 2770 3770 
Q 2525 4250 2034 4250 
z
M 2034 4750 
Q 2819 4750 3233 4129 
Q 3647 3509 3647 2328 
Q 3647 1150 3233 529 
Q 2819 -91 2034 -91 
Q 1250 -91 836 529 
Q 422 1150 422 2328 
Q 422 3509 836 4129 
Q 1250 4750 2034 4750 
z
" id="DejaVuSans-30" transform="scale(0.015625)"/>
       </defs>
       <use xlink:href="#DejaVuSans-30"/>
      </g>
     </g>
    </g>
    <g id="xtick_2">
     <g id="line2d_3">
      <path clip-path="url(#pf03fe66c67)" d="M 138.828632 307.584 
L 138.828632 41.472 
" style="fill:none;stroke:#b0b0b0;stroke-linecap:square;stroke-width:0.8;"/>
     </g>
     <g id="line2d_4">
      <g>
       <use style="stroke:#000000;stroke-width:0.8;" x="138.828632" xlink:href="#m546f94c189" y="307.584"/>
      </g>
     </g>
     <g id="text_2">
      <!-- 200 -->
      <g transform="translate(127.376132 323.702125)scale(0.12 -0.12)">
       <defs>
        <path d="M 1228 531 
L 3431 531 
L 3431 0 
L 469 0 
L 469 531 
Q 828 903 1448 1529 
Q 2069 2156 2228 2338 
Q 2531 2678 2651 2914 
Q 2772 3150 2772 3378 
Q 2772 3750 2511 3984 
Q 2250 4219 1831 4219 
Q 1534 4219 1204 4116 
Q 875 4013 500 3803 
L 500 4441 
Q 881 4594 1212 4672 
Q 1544 4750 1819 4750 
Q 2544 4750 2975 4387 
Q 3406 4025 3406 3419 
Q 3406 3131 3298 2873 
Q 3191 2616 2906 2266 
Q 2828 2175 2409 1742 
Q 1991 1309 1228 531 
z
" id="DejaVuSans-32" transform="scale(0.015625)"/>
       </defs>
       <use xlink:href="#DejaVuSans-32"/>
       <use x="63.623047" xlink:href="#DejaVuSans-30"/>
       <use x="127.246094" xlink:href="#DejaVuSans-30"/>
      </g>
     </g>
    </g>
    <g id="xtick_3">
     <g id="line2d_5">
      <path clip-path="url(#pf03fe66c67)" d="M 203.824537 307.584 
L 203.824537 41.472 
" style="fill:none;stroke:#b0b0b0;stroke-linecap:square;stroke-width:0.8;"/>
     </g>
     <g id="line2d_6">
      <g>
       <use style="stroke:#000000;stroke-width:0.8;" x="203.824537" xlink:href="#m546f94c189" y="307.584"/>
      </g>
     </g>
     <g id="text_3">
      <!-- 400 -->
      <g transform="translate(192.372037 323.702125)scale(0.12 -0.12)">
       <defs>
        <path d="M 2419 4116 
L 825 1625 
L 2419 1625 
L 2419 4116 
z
M 2253 4666 
L 3047 4666 
L 3047 1625 
L 3713 1625 
L 3713 1100 
L 3047 1100 
L 3047 0 
L 2419 0 
L 2419 1100 
L 313 1100 
L 313 1709 
L 2253 4666 
z
" id="DejaVuSans-34" transform="scale(0.015625)"/>
       </defs>
       <use xlink:href="#DejaVuSans-34"/>
       <use x="63.623047" xlink:href="#DejaVuSans-30"/>
       <use x="127.246094" xlink:href="#DejaVuSans-30"/>
      </g>
     </g>
    </g>
    <g id="xtick_4">
     <g id="line2d_7">
      <path clip-path="url(#pf03fe66c67)" d="M 268.820442 307.584 
L 268.820442 41.472 
" style="fill:none;stroke:#b0b0b0;stroke-linecap:square;stroke-width:0.8;"/>
     </g>
     <g id="line2d_8">
      <g>
       <use style="stroke:#000000;stroke-width:0.8;" x="268.820442" xlink:href="#m546f94c189" y="307.584"/>
      </g>
     </g>
     <g id="text_4">
      <!-- 600 -->
      <g transform="translate(257.367942 323.702125)scale(0.12 -0.12)">
       <defs>
        <path d="M 2113 2584 
Q 1688 2584 1439 2293 
Q 1191 2003 1191 1497 
Q 1191 994 1439 701 
Q 1688 409 2113 409 
Q 2538 409 2786 701 
Q 3034 994 3034 1497 
Q 3034 2003 2786 2293 
Q 2538 2584 2113 2584 
z
M 3366 4563 
L 3366 3988 
Q 3128 4100 2886 4159 
Q 2644 4219 2406 4219 
Q 1781 4219 1451 3797 
Q 1122 3375 1075 2522 
Q 1259 2794 1537 2939 
Q 1816 3084 2150 3084 
Q 2853 3084 3261 2657 
Q 3669 2231 3669 1497 
Q 3669 778 3244 343 
Q 2819 -91 2113 -91 
Q 1303 -91 875 529 
Q 447 1150 447 2328 
Q 447 3434 972 4092 
Q 1497 4750 2381 4750 
Q 2619 4750 2861 4703 
Q 3103 4656 3366 4563 
z
" id="DejaVuSans-36" transform="scale(0.015625)"/>
       </defs>
       <use xlink:href="#DejaVuSans-36"/>
       <use x="63.623047" xlink:href="#DejaVuSans-30"/>
       <use x="127.246094" xlink:href="#DejaVuSans-30"/>
      </g>
     </g>
    </g>
    <g id="xtick_5">
     <g id="line2d_9">
      <path clip-path="url(#pf03fe66c67)" d="M 333.816347 307.584 
L 333.816347 41.472 
" style="fill:none;stroke:#b0b0b0;stroke-linecap:square;stroke-width:0.8;"/>
     </g>
     <g id="line2d_10">
      <g>
       <use style="stroke:#000000;stroke-width:0.8;" x="333.816347" xlink:href="#m546f94c189" y="307.584"/>
      </g>
     </g>
     <g id="text_5">
      <!-- 800 -->
      <g transform="translate(322.363847 323.702125)scale(0.12 -0.12)">
       <defs>
        <path d="M 2034 2216 
Q 1584 2216 1326 1975 
Q 1069 1734 1069 1313 
Q 1069 891 1326 650 
Q 1584 409 2034 409 
Q 2484 409 2743 651 
Q 3003 894 3003 1313 
Q 3003 1734 2745 1975 
Q 2488 2216 2034 2216 
z
M 1403 2484 
Q 997 2584 770 2862 
Q 544 3141 544 3541 
Q 544 4100 942 4425 
Q 1341 4750 2034 4750 
Q 2731 4750 3128 4425 
Q 3525 4100 3525 3541 
Q 3525 3141 3298 2862 
Q 3072 2584 2669 2484 
Q 3125 2378 3379 2068 
Q 3634 1759 3634 1313 
Q 3634 634 3220 271 
Q 2806 -91 2034 -91 
Q 1263 -91 848 271 
Q 434 634 434 1313 
Q 434 1759 690 2068 
Q 947 2378 1403 2484 
z
M 1172 3481 
Q 1172 3119 1398 2916 
Q 1625 2713 2034 2713 
Q 2441 2713 2670 2916 
Q 2900 3119 2900 3481 
Q 2900 3844 2670 4047 
Q 2441 4250 2034 4250 
Q 1625 4250 1398 4047 
Q 1172 3844 1172 3481 
z
" id="DejaVuSans-38" transform="scale(0.015625)"/>
       </defs>
       <use xlink:href="#DejaVuSans-38"/>
       <use x="63.623047" xlink:href="#DejaVuSans-30"/>
       <use x="127.246094" xlink:href="#DejaVuSans-30"/>
      </g>
     </g>
    </g>
    <g id="xtick_6">
     <g id="line2d_11">
      <path clip-path="url(#pf03fe66c67)" d="M 398.812252 307.584 
L 398.812252 41.472 
" style="fill:none;stroke:#b0b0b0;stroke-linecap:square;stroke-width:0.8;"/>
     </g>
     <g id="line2d_12">
      <g>
       <use style="stroke:#000000;stroke-width:0.8;" x="398.812252" xlink:href="#m546f94c189" y="307.584"/>
      </g>
     </g>
     <g id="text_6">
      <!-- 1000 -->
      <g transform="translate(383.542252 323.702125)scale(0.12 -0.12)">
       <defs>
        <path d="M 794 531 
L 1825 531 
L 1825 4091 
L 703 3866 
L 703 4441 
L 1819 4666 
L 2450 4666 
L 2450 531 
L 3481 531 
L 3481 0 
L 794 0 
L 794 531 
z
" id="DejaVuSans-31" transform="scale(0.015625)"/>
       </defs>
       <use xlink:href="#DejaVuSans-31"/>
       <use x="63.623047" xlink:href="#DejaVuSans-30"/>
       <use x="127.246094" xlink:href="#DejaVuSans-30"/>
       <use x="190.869141" xlink:href="#DejaVuSans-30"/>
      </g>
     </g>
    </g>
    <g id="text_7">
     <!-- Sample Count -->
     <g transform="translate(193.936875 339.315875)scale(0.12 -0.12)">
      <defs>
       <path d="M 3425 4513 
L 3425 3897 
Q 3066 4069 2747 4153 
Q 2428 4238 2131 4238 
Q 1616 4238 1336 4038 
Q 1056 3838 1056 3469 
Q 1056 3159 1242 3001 
Q 1428 2844 1947 2747 
L 2328 2669 
Q 3034 2534 3370 2195 
Q 3706 1856 3706 1288 
Q 3706 609 3251 259 
Q 2797 -91 1919 -91 
Q 1588 -91 1214 -16 
Q 841 59 441 206 
L 441 856 
Q 825 641 1194 531 
Q 1563 422 1919 422 
Q 2459 422 2753 634 
Q 3047 847 3047 1241 
Q 3047 1584 2836 1778 
Q 2625 1972 2144 2069 
L 1759 2144 
Q 1053 2284 737 2584 
Q 422 2884 422 3419 
Q 422 4038 858 4394 
Q 1294 4750 2059 4750 
Q 2388 4750 2728 4690 
Q 3069 4631 3425 4513 
z
" id="DejaVuSans-53" transform="scale(0.015625)"/>
       <path d="M 2194 1759 
Q 1497 1759 1228 1600 
Q 959 1441 959 1056 
Q 959 750 1161 570 
Q 1363 391 1709 391 
Q 2188 391 2477 730 
Q 2766 1069 2766 1631 
L 2766 1759 
L 2194 1759 
z
M 3341 1997 
L 3341 0 
L 2766 0 
L 2766 531 
Q 2569 213 2275 61 
Q 1981 -91 1556 -91 
Q 1019 -91 701 211 
Q 384 513 384 1019 
Q 384 1609 779 1909 
Q 1175 2209 1959 2209 
L 2766 2209 
L 2766 2266 
Q 2766 2663 2505 2880 
Q 2244 3097 1772 3097 
Q 1472 3097 1187 3025 
Q 903 2953 641 2809 
L 641 3341 
Q 956 3463 1253 3523 
Q 1550 3584 1831 3584 
Q 2591 3584 2966 3190 
Q 3341 2797 3341 1997 
z
" id="DejaVuSans-61" transform="scale(0.015625)"/>
       <path d="M 3328 2828 
Q 3544 3216 3844 3400 
Q 4144 3584 4550 3584 
Q 5097 3584 5394 3201 
Q 5691 2819 5691 2113 
L 5691 0 
L 5113 0 
L 5113 2094 
Q 5113 2597 4934 2840 
Q 4756 3084 4391 3084 
Q 3944 3084 3684 2787 
Q 3425 2491 3425 1978 
L 3425 0 
L 2847 0 
L 2847 2094 
Q 2847 2600 2669 2842 
Q 2491 3084 2119 3084 
Q 1678 3084 1418 2786 
Q 1159 2488 1159 1978 
L 1159 0 
L 581 0 
L 581 3500 
L 1159 3500 
L 1159 2956 
Q 1356 3278 1631 3431 
Q 1906 3584 2284 3584 
Q 2666 3584 2933 3390 
Q 3200 3197 3328 2828 
z
" id="DejaVuSans-6d" transform="scale(0.015625)"/>
       <path d="M 1159 525 
L 1159 -1331 
L 581 -1331 
L 581 3500 
L 1159 3500 
L 1159 2969 
Q 1341 3281 1617 3432 
Q 1894 3584 2278 3584 
Q 2916 3584 3314 3078 
Q 3713 2572 3713 1747 
Q 3713 922 3314 415 
Q 2916 -91 2278 -91 
Q 1894 -91 1617 61 
Q 1341 213 1159 525 
z
M 3116 1747 
Q 3116 2381 2855 2742 
Q 2594 3103 2138 3103 
Q 1681 3103 1420 2742 
Q 1159 2381 1159 1747 
Q 1159 1113 1420 752 
Q 1681 391 2138 391 
Q 2594 391 2855 752 
Q 3116 1113 3116 1747 
z
" id="DejaVuSans-70" transform="scale(0.015625)"/>
       <path d="M 603 4863 
L 1178 4863 
L 1178 0 
L 603 0 
L 603 4863 
z
" id="DejaVuSans-6c" transform="scale(0.015625)"/>
       <path d="M 3597 1894 
L 3597 1613 
L 953 1613 
Q 991 1019 1311 708 
Q 1631 397 2203 397 
Q 2534 397 2845 478 
Q 3156 559 3463 722 
L 3463 178 
Q 3153 47 2828 -22 
Q 2503 -91 2169 -91 
Q 1331 -91 842 396 
Q 353 884 353 1716 
Q 353 2575 817 3079 
Q 1281 3584 2069 3584 
Q 2775 3584 3186 3129 
Q 3597 2675 3597 1894 
z
M 3022 2063 
Q 3016 2534 2758 2815 
Q 2500 3097 2075 3097 
Q 1594 3097 1305 2825 
Q 1016 2553 972 2059 
L 3022 2063 
z
" id="DejaVuSans-65" transform="scale(0.015625)"/>
       <path id="DejaVuSans-20" transform="scale(0.015625)"/>
       <path d="M 4122 4306 
L 4122 3641 
Q 3803 3938 3442 4084 
Q 3081 4231 2675 4231 
Q 1875 4231 1450 3742 
Q 1025 3253 1025 2328 
Q 1025 1406 1450 917 
Q 1875 428 2675 428 
Q 3081 428 3442 575 
Q 3803 722 4122 1019 
L 4122 359 
Q 3791 134 3420 21 
Q 3050 -91 2638 -91 
Q 1578 -91 968 557 
Q 359 1206 359 2328 
Q 359 3453 968 4101 
Q 1578 4750 2638 4750 
Q 3056 4750 3426 4639 
Q 3797 4528 4122 4306 
z
" id="DejaVuSans-43" transform="scale(0.015625)"/>
       <path d="M 1959 3097 
Q 1497 3097 1228 2736 
Q 959 2375 959 1747 
Q 959 1119 1226 758 
Q 1494 397 1959 397 
Q 2419 397 2687 759 
Q 2956 1122 2956 1747 
Q 2956 2369 2687 2733 
Q 2419 3097 1959 3097 
z
M 1959 3584 
Q 2709 3584 3137 3096 
Q 3566 2609 3566 1747 
Q 3566 888 3137 398 
Q 2709 -91 1959 -91 
Q 1206 -91 779 398 
Q 353 888 353 1747 
Q 353 2609 779 3096 
Q 1206 3584 1959 3584 
z
" id="DejaVuSans-6f" transform="scale(0.015625)"/>
       <path d="M 544 1381 
L 544 3500 
L 1119 3500 
L 1119 1403 
Q 1119 906 1312 657 
Q 1506 409 1894 409 
Q 2359 409 2629 706 
Q 2900 1003 2900 1516 
L 2900 3500 
L 3475 3500 
L 3475 0 
L 2900 0 
L 2900 538 
Q 2691 219 2414 64 
Q 2138 -91 1772 -91 
Q 1169 -91 856 284 
Q 544 659 544 1381 
z
M 1991 3584 
L 1991 3584 
z
" id="DejaVuSans-75" transform="scale(0.015625)"/>
       <path d="M 3513 2113 
L 3513 0 
L 2938 0 
L 2938 2094 
Q 2938 2591 2744 2837 
Q 2550 3084 2163 3084 
Q 1697 3084 1428 2787 
Q 1159 2491 1159 1978 
L 1159 0 
L 581 0 
L 581 3500 
L 1159 3500 
L 1159 2956 
Q 1366 3272 1645 3428 
Q 1925 3584 2291 3584 
Q 2894 3584 3203 3211 
Q 3513 2838 3513 2113 
z
" id="DejaVuSans-6e" transform="scale(0.015625)"/>
       <path d="M 1172 4494 
L 1172 3500 
L 2356 3500 
L 2356 3053 
L 1172 3053 
L 1172 1153 
Q 1172 725 1289 603 
Q 1406 481 1766 481 
L 2356 481 
L 2356 0 
L 1766 0 
Q 1100 0 847 248 
Q 594 497 594 1153 
L 594 3053 
L 172 3053 
L 172 3500 
L 594 3500 
L 594 4494 
L 1172 4494 
z
" id="DejaVuSans-74" transform="scale(0.015625)"/>
      </defs>
      <use xlink:href="#DejaVuSans-53"/>
      <use x="63.476562" xlink:href="#DejaVuSans-61"/>
      <use x="124.755859" xlink:href="#DejaVuSans-6d"/>
      <use x="222.167969" xlink:href="#DejaVuSans-70"/>
      <use x="285.644531" xlink:href="#DejaVuSans-6c"/>
      <use x="313.427734" xlink:href="#DejaVuSans-65"/>
      <use x="374.951172" xlink:href="#DejaVuSans-20"/>
      <use x="406.738281" xlink:href="#DejaVuSans-43"/>
      <use x="476.5625" xlink:href="#DejaVuSans-6f"/>
      <use x="537.744141" xlink:href="#DejaVuSans-75"/>
      <use x="601.123047" xlink:href="#DejaVuSans-6e"/>
      <use x="664.501953" xlink:href="#DejaVuSans-74"/>
     </g>
    </g>
   </g>
   <g id="matplotlib.axis_2">
    <g id="ytick_1">
     <g id="line2d_13">
      <path clip-path="url(#pf03fe66c67)" d="M 57.6 278.320787 
L 414.72 278.320787 
" style="fill:none;stroke:#b0b0b0;stroke-linecap:square;stroke-width:0.8;"/>
     </g>
     <g id="line2d_14">
      <defs>
       <path d="M 0 0 
L -3.5 0 
" id="m79f45dd4d6" style="stroke:#000000;stroke-width:0.8;"/>
      </defs>
      <g>
       <use style="stroke:#000000;stroke-width:0.8;" x="57.6" xlink:href="#m79f45dd4d6" y="278.320787"/>
      </g>
     </g>
     <g id="text_8">
      <!-- 0 -->
      <g transform="translate(42.965 282.879849)scale(0.12 -0.12)">
       <use xlink:href="#DejaVuSans-30"/>
      </g>
     </g>
    </g>
    <g id="ytick_2">
     <g id="line2d_15">
      <path clip-path="url(#pf03fe66c67)" d="M 57.6 237.491086 
L 414.72 237.491086 
" style="fill:none;stroke:#b0b0b0;stroke-linecap:square;stroke-width:0.8;"/>
     </g>
     <g id="line2d_16">
      <g>
       <use style="stroke:#000000;stroke-width:0.8;" x="57.6" xlink:href="#m79f45dd4d6" y="237.491086"/>
      </g>
     </g>
     <g id="text_9">
      <!-- 2 -->
      <g transform="translate(42.965 242.050148)scale(0.12 -0.12)">
       <use xlink:href="#DejaVuSans-32"/>
      </g>
     </g>
    </g>
    <g id="ytick_3">
     <g id="line2d_17">
      <path clip-path="url(#pf03fe66c67)" d="M 57.6 196.661385 
L 414.72 196.661385 
" style="fill:none;stroke:#b0b0b0;stroke-linecap:square;stroke-width:0.8;"/>
     </g>
     <g id="line2d_18">
      <g>
       <use style="stroke:#000000;stroke-width:0.8;" x="57.6" xlink:href="#m79f45dd4d6" y="196.661385"/>
      </g>
     </g>
     <g id="text_10">
      <!-- 4 -->
      <g transform="translate(42.965 201.220448)scale(0.12 -0.12)">
       <use xlink:href="#DejaVuSans-34"/>
      </g>
     </g>
    </g>
    <g id="ytick_4">
     <g id="line2d_19">
      <path clip-path="url(#pf03fe66c67)" d="M 57.6 155.831685 
L 414.72 155.831685 
" style="fill:none;stroke:#b0b0b0;stroke-linecap:square;stroke-width:0.8;"/>
     </g>
     <g id="line2d_20">
      <g>
       <use style="stroke:#000000;stroke-width:0.8;" x="57.6" xlink:href="#m79f45dd4d6" y="155.831685"/>
      </g>
     </g>
     <g id="text_11">
      <!-- 6 -->
      <g transform="translate(42.965 160.390747)scale(0.12 -0.12)">
       <use xlink:href="#DejaVuSans-36"/>
      </g>
     </g>
    </g>
    <g id="ytick_5">
     <g id="line2d_21">
      <path clip-path="url(#pf03fe66c67)" d="M 57.6 115.001984 
L 414.72 115.001984 
" style="fill:none;stroke:#b0b0b0;stroke-linecap:square;stroke-width:0.8;"/>
     </g>
     <g id="line2d_22">
      <g>
       <use style="stroke:#000000;stroke-width:0.8;" x="57.6" xlink:href="#m79f45dd4d6" y="115.001984"/>
      </g>
     </g>
     <g id="text_12">
      <!-- 8 -->
      <g transform="translate(42.965 119.561046)scale(0.12 -0.12)">
       <use xlink:href="#DejaVuSans-38"/>
      </g>
     </g>
    </g>
    <g id="ytick_6">
     <g id="line2d_23">
      <path clip-path="url(#pf03fe66c67)" d="M 57.6 74.172283 
L 414.72 74.172283 
" style="fill:none;stroke:#b0b0b0;stroke-linecap:square;stroke-width:0.8;"/>
     </g>
     <g id="line2d_24">
      <g>
       <use style="stroke:#000000;stroke-width:0.8;" x="57.6" xlink:href="#m79f45dd4d6" y="74.172283"/>
      </g>
     </g>
     <g id="text_13">
      <!-- 10 -->
      <g transform="translate(35.33 78.731346)scale(0.12 -0.12)">
       <use xlink:href="#DejaVuSans-31"/>
       <use x="63.623047" xlink:href="#DejaVuSans-30"/>
      </g>
     </g>
    </g>
    <g id="text_14">
     <!-- Magnitude -->
     <g transform="translate(28.834375 206.315812)rotate(-90)scale(0.12 -0.12)">
      <defs>
       <path d="M 628 4666 
L 1569 4666 
L 2759 1491 
L 3956 4666 
L 4897 4666 
L 4897 0 
L 4281 0 
L 4281 4097 
L 3078 897 
L 2444 897 
L 1241 4097 
L 1241 0 
L 628 0 
L 628 4666 
z
" id="DejaVuSans-4d" transform="scale(0.015625)"/>
       <path d="M 2906 1791 
Q 2906 2416 2648 2759 
Q 2391 3103 1925 3103 
Q 1463 3103 1205 2759 
Q 947 2416 947 1791 
Q 947 1169 1205 825 
Q 1463 481 1925 481 
Q 2391 481 2648 825 
Q 2906 1169 2906 1791 
z
M 3481 434 
Q 3481 -459 3084 -895 
Q 2688 -1331 1869 -1331 
Q 1566 -1331 1297 -1286 
Q 1028 -1241 775 -1147 
L 775 -588 
Q 1028 -725 1275 -790 
Q 1522 -856 1778 -856 
Q 2344 -856 2625 -561 
Q 2906 -266 2906 331 
L 2906 616 
Q 2728 306 2450 153 
Q 2172 0 1784 0 
Q 1141 0 747 490 
Q 353 981 353 1791 
Q 353 2603 747 3093 
Q 1141 3584 1784 3584 
Q 2172 3584 2450 3431 
Q 2728 3278 2906 2969 
L 2906 3500 
L 3481 3500 
L 3481 434 
z
" id="DejaVuSans-67" transform="scale(0.015625)"/>
       <path d="M 603 3500 
L 1178 3500 
L 1178 0 
L 603 0 
L 603 3500 
z
M 603 4863 
L 1178 4863 
L 1178 4134 
L 603 4134 
L 603 4863 
z
" id="DejaVuSans-69" transform="scale(0.015625)"/>
       <path d="M 2906 2969 
L 2906 4863 
L 3481 4863 
L 3481 0 
L 2906 0 
L 2906 525 
Q 2725 213 2448 61 
Q 2172 -91 1784 -91 
Q 1150 -91 751 415 
Q 353 922 353 1747 
Q 353 2572 751 3078 
Q 1150 3584 1784 3584 
Q 2172 3584 2448 3432 
Q 2725 3281 2906 2969 
z
M 947 1747 
Q 947 1113 1208 752 
Q 1469 391 1925 391 
Q 2381 391 2643 752 
Q 2906 1113 2906 1747 
Q 2906 2381 2643 2742 
Q 2381 3103 1925 3103 
Q 1469 3103 1208 2742 
Q 947 2381 947 1747 
z
" id="DejaVuSans-64" transform="scale(0.015625)"/>
      </defs>
      <use xlink:href="#DejaVuSans-4d"/>
      <use x="86.279297" xlink:href="#DejaVuSans-61"/>
      <use x="147.558594" xlink:href="#DejaVuSans-67"/>
      <use x="211.035156" xlink:href="#DejaVuSans-6e"/>
      <use x="274.414062" xlink:href="#DejaVuSans-69"/>
      <use x="302.197266" xlink:href="#DejaVuSans-74"/>
      <use x="341.40625" xlink:href="#DejaVuSans-75"/>
      <use x="404.785156" xlink:href="#DejaVuSans-64"/>
      <use x="468.261719" xlink:href="#DejaVuSans-65"/>
     </g>
    </g>
   </g>
   <g id="line2d_25">
    <path clip-path="url(#pf03fe66c67)" d="M 73.832727 281.011032 
L 74.157707 278.683999 
L 74.482686 292.110308 
L 74.807666 267.73255 
L 75.132645 289.897728 
L 75.457625 283.754414 
L 75.782604 275.074599 
L 76.107584 286.35934 
L 76.757543 284.18859 
L 77.407502 263.524181 
L 77.732482 278.052642 
L 78.057461 285.537192 
L 78.382441 274.84107 
L 78.70742 282.169102 
L 79.0324 278.444277 
L 79.357379 270.735947 
L 79.682359 283.148425 
L 80.007338 278.262527 
L 80.332318 283.989127 
L 80.657297 279.330597 
L 80.982277 276.664579 
L 81.307256 284.703529 
L 81.632236 280.507942 
L 81.957215 279.845396 
L 82.282195 282.436962 
L 82.607174 285.987033 
L 82.932154 287.494993 
L 83.257133 279.311625 
L 83.582113 280.057597 
L 83.907093 263.916922 
L 84.232072 294.037639 
L 84.557052 277.593117 
L 84.882031 275.929502 
L 85.207011 269.544111 
L 85.53199 275.08121 
L 85.85697 283.770334 
L 86.181949 278.320724 
L 86.506929 274.819805 
L 86.831908 280.344537 
L 87.156888 273.34377 
L 87.481867 290.37964 
L 87.806847 267.145685 
L 88.131826 268.846667 
L 88.456806 280.487643 
L 88.781785 274.374474 
L 89.106765 278.011128 
L 89.431744 283.673001 
L 90.081704 271.863249 
L 90.406683 280.780806 
L 90.731663 280.745799 
L 91.056642 278.801508 
L 91.381622 275.522492 
L 91.706601 270.068624 
L 92.031581 282.417753 
L 92.35656 275.039 
L 92.68154 276.92572 
L 93.006519 290.318456 
L 93.331499 281.027548 
L 93.656478 279.174993 
L 93.981458 278.576219 
L 94.306437 276.216377 
L 94.631417 291.49143 
L 94.956396 278.022199 
L 95.606355 287.612618 
L 95.931335 274.936361 
L 96.256314 273.574428 
L 96.581294 282.537632 
L 96.906274 272.882583 
L 97.231253 280.783542 
L 97.556233 277.891588 
L 97.881212 285.413339 
L 98.206192 268.092644 
L 98.531171 295.488 
L 98.856151 278.911129 
L 99.18113 273.833667 
L 99.50611 291.44717 
L 99.831089 279.543844 
L 100.156069 278.819247 
L 100.481048 272.997184 
L 100.806028 270.263353 
L 101.131007 280.927982 
L 101.455987 287.258098 
L 101.780966 269.495042 
L 102.105946 270.459121 
L 102.430925 281.303112 
L 102.755905 276.05574 
L 103.080885 275.855773 
L 103.405864 274.665379 
L 103.730844 277.002588 
L 104.055823 269.240315 
L 104.380803 289.53962 
L 105.030762 255.449923 
L 105.355741 259.307583 
L 105.680721 250.330584 
L 106.0057 273.034307 
L 106.33068 250.408111 
L 106.655659 255.413735 
L 106.980639 265.220511 
L 107.305618 255.110248 
L 107.630598 259.868868 
L 107.955577 241.217404 
L 108.280557 246.058541 
L 108.930516 262.548846 
L 109.255495 261.67198 
L 109.580475 260.004189 
L 109.905455 261.522348 
L 110.230434 263.730093 
L 110.880393 259.688723 
L 111.855332 263.902097 
L 112.180311 241.442409 
L 112.505291 267.415528 
L 112.83027 264.499348 
L 113.15525 255.114746 
L 113.480229 259.994702 
L 113.805209 255.170073 
L 114.455168 249.755543 
L 114.780147 253.051871 
L 115.105127 264.320838 
L 115.430106 250.746222 
L 115.755086 269.29879 
L 116.080066 258.644546 
L 116.405045 261.121738 
L 116.730025 264.75358 
L 117.055004 254.086625 
L 117.379984 259.08889 
L 117.704963 251.322595 
L 118.029943 267.475511 
L 118.354922 252.442844 
L 119.004881 257.08933 
L 119.329861 267.064608 
L 119.65484 259.531182 
L 119.97982 267.889993 
L 120.304799 271.34982 
L 120.629779 236.734604 
L 120.954758 251.638856 
L 121.279738 246.334434 
L 121.604717 260.675293 
L 121.929697 253.411856 
L 122.254676 253.403992 
L 122.579656 254.023046 
L 122.904636 257.882314 
L 123.229615 259.379314 
L 123.554595 271.265647 
L 123.879574 253.967349 
L 124.204554 255.172189 
L 124.529533 250.689781 
L 124.854513 259.676217 
L 125.179492 246.662233 
L 125.504472 260.794633 
L 125.829451 266.009939 
L 126.154431 251.849925 
L 126.47941 260.929194 
L 126.80439 266.005376 
L 127.129369 257.100178 
L 127.454349 253.022582 
L 127.779328 256.347401 
L 128.104308 254.694966 
L 128.429287 231.383604 
L 128.754267 252.605457 
L 129.079247 248.018154 
L 129.404226 270.72492 
L 129.729206 255.549452 
L 130.054185 252.909101 
L 130.379165 260.258713 
L 130.704144 263.560538 
L 131.029124 255.346329 
L 131.354103 259.936847 
L 131.679083 261.738733 
L 132.004062 250.485708 
L 132.329042 249.284622 
L 132.979001 260.838057 
L 133.30398 254.585583 
L 133.62896 252.551636 
L 133.953939 253.835161 
L 134.278919 267.287658 
L 134.603898 260.0879 
L 134.928878 255.587667 
L 135.578837 251.70392 
L 135.903817 253.010522 
L 136.228796 265.228161 
L 136.553776 262.472462 
L 136.878755 265.790476 
L 137.203735 246.257723 
L 137.528714 256.741359 
L 138.178673 251.237552 
L 138.503653 260.029705 
L 138.828632 265.335862 
L 139.153612 260.659214 
L 139.478591 258.862252 
L 139.803571 248.213897 
L 140.12855 252.292527 
L 140.45353 264.923297 
L 140.778509 253.61827 
L 141.103489 253.162127 
L 141.428468 264.757239 
L 141.753448 258.606431 
L 142.078428 269.850619 
L 142.403407 255.772578 
L 142.728387 259.943791 
L 143.053366 266.620437 
L 143.378346 262.412753 
L 143.703325 256.357009 
L 144.028305 261.475322 
L 144.353284 255.972438 
L 144.678264 254.338395 
L 145.003243 263.331144 
L 145.328223 259.921698 
L 145.653202 244.061662 
L 145.978182 257.124178 
L 146.303161 263.372365 
L 146.628141 257.515641 
L 146.95312 266.546763 
L 147.2781 250.593861 
L 147.603079 255.515553 
L 147.928059 250.896865 
L 148.253038 252.08221 
L 148.578018 255.386504 
L 148.902998 251.608852 
L 149.552957 262.180612 
L 149.877936 264.512905 
L 150.202916 260.798983 
L 150.527895 274.079109 
L 150.852875 246.118821 
L 151.177854 268.970542 
L 151.502834 258.400658 
L 151.827813 266.411064 
L 152.152793 270.981499 
L 152.477772 258.436845 
L 152.802752 259.872613 
L 153.127731 258.936984 
L 153.452711 254.36239 
L 153.77769 261.897659 
L 154.10267 255.460751 
L 154.427649 254.592808 
L 154.752629 260.067414 
L 155.077609 259.736105 
L 155.402588 254.430313 
L 155.727568 257.536371 
L 156.052547 256.878992 
L 156.377527 273.233123 
L 156.702506 257.52818 
L 157.027486 255.475266 
L 157.352465 258.780482 
L 157.677445 255.737589 
L 158.002424 245.612855 
L 158.327404 257.354894 
L 158.652383 253.611087 
L 158.977363 263.392807 
L 159.302342 263.407952 
L 159.627322 261.004324 
L 159.952301 264.48795 
L 160.277281 257.955003 
L 160.60226 263.933977 
L 160.92724 259.035572 
L 161.252219 246.768099 
L 161.577199 248.156329 
L 161.902179 241.852601 
L 162.227158 244.379192 
L 162.552138 241.705871 
L 162.877117 241.442265 
L 163.202097 239.758547 
L 163.527076 230.742342 
L 163.852056 228.653847 
L 164.177035 232.808803 
L 164.502015 239.811557 
L 164.826994 227.827999 
L 165.151974 247.374677 
L 165.476953 250.552256 
L 165.801933 235.761276 
L 166.126912 237.505329 
L 166.451892 238.390239 
L 166.776871 216.86602 
L 167.101851 227.66634 
L 167.42683 224.542932 
L 167.75181 209.110325 
L 168.07679 210.439121 
L 168.401769 221.736096 
L 168.726749 204.597368 
L 169.051728 223.988414 
L 169.376708 220.764604 
L 169.701687 215.188535 
L 170.026667 224.79017 
L 170.351646 220.225913 
L 170.676626 218.19344 
L 171.001605 219.628266 
L 171.326585 211.454805 
L 171.651564 213.249564 
L 171.976544 224.172393 
L 172.301523 221.475636 
L 172.626503 215.913873 
L 172.951482 217.508287 
L 173.276462 222.161297 
L 173.601441 214.334376 
L 173.926421 211.783733 
L 174.2514 221.150218 
L 174.57638 211.982717 
L 174.90136 227.544425 
L 175.226339 227.472291 
L 175.551319 213.849037 
L 175.876298 222.463178 
L 176.201278 223.511785 
L 176.526257 218.776452 
L 176.851237 221.448717 
L 177.176216 214.96496 
L 177.501196 226.470836 
L 177.826175 219.474457 
L 178.151155 196.671645 
L 178.801114 229.428364 
L 179.126093 213.204289 
L 179.451073 213.529862 
L 179.776052 208.143686 
L 180.101032 216.118615 
L 180.426011 221.29496 
L 180.750991 207.981965 
L 181.075971 212.479755 
L 181.40095 228.700174 
L 181.72593 212.250353 
L 182.050909 218.579627 
L 182.375889 209.906825 
L 182.700868 219.486203 
L 183.025848 212.001525 
L 183.350827 215.822843 
L 183.675807 213.292185 
L 184.000786 217.207839 
L 184.325766 219.751316 
L 184.975725 212.997863 
L 185.300704 214.380601 
L 185.625684 206.649989 
L 185.950663 214.328873 
L 186.275643 212.974851 
L 186.600622 203.505976 
L 186.925602 216.649378 
L 187.250581 213.619112 
L 187.575561 220.969615 
L 187.900541 216.805392 
L 188.22552 206.477388 
L 188.5505 215.064172 
L 188.875479 207.708679 
L 189.200459 223.950532 
L 189.525438 226.118939 
L 189.850418 215.091104 
L 190.175397 225.917494 
L 190.500377 199.83874 
L 190.825356 209.01727 
L 191.150336 225.117619 
L 191.475315 218.155339 
L 191.800295 220.79836 
L 192.125274 214.390742 
L 192.450254 217.44965 
L 192.775233 211.060739 
L 193.100213 207.597894 
L 193.425192 218.504901 
L 193.750172 224.649161 
L 194.075152 213.444108 
L 194.400131 218.138209 
L 194.725111 209.685993 
L 195.05009 218.058182 
L 195.37507 211.719802 
L 196.025029 218.296548 
L 196.350008 219.976731 
L 196.674988 212.47031 
L 196.999967 200.746353 
L 197.324947 211.669278 
L 197.649926 217.926269 
L 197.974906 212.508599 
L 198.299885 216.339998 
L 198.624865 225.344639 
L 199.274824 207.081747 
L 199.599803 219.114961 
L 199.924783 224.344142 
L 200.574742 205.257153 
L 200.899722 211.007234 
L 201.224701 210.500238 
L 201.549681 202.213979 
L 202.19964 212.47574 
L 202.524619 218.423454 
L 202.849599 216.187887 
L 203.174578 217.743392 
L 203.499558 211.599984 
L 203.824537 222.776966 
L 204.149517 207.100492 
L 204.474496 216.134812 
L 204.799476 219.65899 
L 205.124455 211.813937 
L 205.449435 230.470224 
L 205.774414 222.462676 
L 206.099394 221.321924 
L 206.424373 211.779349 
L 206.749353 220.23383 
L 207.074333 207.877823 
L 207.399312 219.960782 
L 207.724292 213.712383 
L 208.049271 221.647755 
L 208.374251 209.617083 
L 208.69923 218.719274 
L 209.02421 213.726484 
L 209.349189 220.258604 
L 209.674169 224.090095 
L 209.999148 218.566849 
L 210.324128 209.988388 
L 210.649107 223.646817 
L 210.974087 226.948725 
L 211.624046 212.036329 
L 211.949025 223.891866 
L 212.274005 200.172248 
L 212.598984 195.471685 
L 212.923964 198.795956 
L 213.248943 194.807406 
L 213.573923 188.982772 
L 213.898903 196.524526 
L 214.223882 197.083616 
L 214.548862 191.715973 
L 215.198821 202.812504 
L 215.5238 203.209923 
L 215.84878 203.86061 
L 216.173759 184.315212 
L 216.498739 196.953567 
L 216.823718 192.937332 
L 217.148698 192.027823 
L 217.473677 202.722789 
L 217.798657 192.602527 
L 218.448616 210.138549 
L 218.773595 198.049572 
L 219.098575 203.600883 
L 219.748534 194.445887 
L 220.073514 181.927191 
L 220.398493 199.861725 
L 220.723473 197.719794 
L 221.048452 194.262499 
L 221.373432 195.457356 
L 221.698411 197.684074 
L 222.023391 203.651886 
L 222.34837 202.836571 
L 222.67335 197.845114 
L 222.998329 204.148143 
L 223.323309 200.907396 
L 223.648288 204.739705 
L 223.973268 189.402651 
L 224.298247 206.330204 
L 224.623227 184.38353 
L 224.948206 200.40786 
L 225.273186 183.056201 
L 225.598165 183.88144 
L 225.923145 171.214854 
L 226.248124 169.619665 
L 226.573104 181.724823 
L 226.898084 174.106388 
L 227.223063 177.212173 
L 227.548043 177.811532 
L 227.873022 175.270531 
L 228.198002 171.307877 
L 228.522981 188.618722 
L 228.847961 190.624414 
L 229.17294 174.912315 
L 229.49792 176.704054 
L 229.822899 171.826289 
L 230.147879 187.268999 
L 230.472858 182.615015 
L 230.797838 166.282737 
L 231.122817 184.704561 
L 231.447797 173.900505 
L 231.772776 181.377576 
L 232.097756 178.862729 
L 232.422735 185.140204 
L 232.747715 168.590382 
L 233.072695 188.536035 
L 233.397674 183.980742 
L 233.722654 182.121169 
L 234.047633 168.652316 
L 234.372613 174.315077 
L 234.697592 171.861746 
L 235.022572 176.360538 
L 235.672531 173.057447 
L 235.99751 166.265041 
L 236.647469 185.727741 
L 236.972449 168.841803 
L 237.622408 183.395246 
L 237.947387 177.384493 
L 238.272367 182.590395 
L 238.597346 162.776631 
L 239.247305 189.170308 
L 239.572285 174.289103 
L 239.897265 181.603523 
L 240.222244 167.927302 
L 240.547224 175.375567 
L 240.872203 187.727715 
L 241.197183 179.479232 
L 241.522162 183.270809 
L 241.847142 181.138626 
L 242.172121 180.402021 
L 242.497101 189.213592 
L 242.82208 174.979623 
L 243.14706 181.9006 
L 243.472039 182.014939 
L 244.121998 164.001504 
L 244.446978 180.307351 
L 244.771957 144.134354 
L 245.096937 169.105241 
L 245.421916 152.199326 
L 245.746896 159.589054 
L 246.071876 156.309387 
L 246.396855 162.199692 
L 247.046814 157.86385 
L 247.371794 158.071247 
L 247.696773 153.175744 
L 248.021753 140.814423 
L 248.346732 159.924609 
L 248.671712 156.828428 
L 248.996691 167.123651 
L 249.321671 172.096012 
L 249.64665 146.851487 
L 249.97163 164.412849 
L 250.621589 155.694442 
L 250.946568 149.951552 
L 251.271548 153.796522 
L 251.596527 143.784983 
L 252.246486 167.633465 
L 252.571466 154.934701 
L 252.896446 155.060613 
L 253.221425 161.117823 
L 253.546405 157.978929 
L 253.871384 159.616922 
L 254.196364 144.635077 
L 254.521343 159.787104 
L 254.846323 164.826598 
L 255.171302 154.027891 
L 255.496282 167.594508 
L 255.821261 153.075212 
L 256.146241 153.204507 
L 256.47122 161.281843 
L 256.7962 139.030571 
L 257.121179 139.293299 
L 257.446159 124.992544 
L 258.096118 143.187662 
L 258.421097 143.469488 
L 258.746077 135.917409 
L 259.071057 135.502945 
L 259.396036 140.376496 
L 259.721016 133.536868 
L 260.045995 136.69064 
L 260.370975 128.46571 
L 261.020934 136.018443 
L 261.345913 134.54131 
L 261.670893 141.114875 
L 261.995872 129.705655 
L 262.320852 132.943182 
L 262.645831 138.108605 
L 262.970811 134.656437 
L 263.29579 138.881232 
L 263.62077 119.361621 
L 263.945749 138.330449 
L 264.270729 132.067656 
L 264.595708 133.064258 
L 264.920688 140.570316 
L 265.245667 135.380312 
L 265.570647 137.488524 
L 265.895627 133.80618 
L 266.220606 133.762319 
L 266.545586 130.46168 
L 266.870565 130.362302 
L 267.195545 138.044498 
L 267.520524 138.805102 
L 267.845504 139.224153 
L 268.170483 140.984624 
L 268.495463 146.667385 
L 268.820442 131.520029 
L 269.145422 135.930753 
L 269.470401 136.780637 
L 269.795381 146.117803 
L 270.12036 145.106312 
L 270.44534 151.654438 
L 270.770319 136.081466 
L 271.095299 131.096843 
L 271.420278 131.580464 
L 271.745258 135.921031 
L 272.070238 142.380287 
L 272.395217 135.474812 
L 272.720197 135.401604 
L 273.045176 130.861078 
L 273.370156 130.473025 
L 273.695135 137.135439 
L 274.020115 135.640734 
L 274.345094 110.507931 
L 274.670074 112.050752 
L 274.995053 116.103892 
L 275.320033 129.000797 
L 275.969992 109.587944 
L 276.294971 114.034818 
L 276.619951 108.849056 
L 276.94493 117.230581 
L 277.26991 114.483823 
L 277.594889 109.879643 
L 277.919869 110.561958 
L 278.244848 112.473602 
L 278.569828 107.973211 
L 278.894808 106.382312 
L 279.219787 106.027056 
L 279.544767 125.663866 
L 279.869746 118.141256 
L 280.194726 117.122951 
L 280.519705 117.355638 
L 280.844685 125.573072 
L 281.169664 106.603023 
L 281.494644 121.465585 
L 281.819623 114.359699 
L 282.144603 130.521685 
L 282.469582 118.275234 
L 282.794562 116.667738 
L 283.119541 121.043182 
L 283.7695 99.635539 
L 284.09448 120.654015 
L 284.419459 120.587066 
L 284.744439 103.69369 
L 285.394398 117.042426 
L 285.719378 123.261748 
L 286.044357 110.272599 
L 286.369337 113.626007 
L 286.694316 104.980237 
L 287.019296 120.624133 
L 287.344275 116.122353 
L 287.669255 116.989761 
L 287.994234 116.401668 
L 288.319214 108.174767 
L 288.644193 109.564342 
L 288.969173 119.136001 
L 289.294152 115.597947 
L 289.619132 116.491922 
L 289.944111 109.262543 
L 290.59407 122.218624 
L 290.91905 117.231009 
L 291.244029 115.310394 
L 291.569009 109.081165 
L 291.893989 106.766297 
L 292.218968 106.66985 
L 292.868927 118.345341 
L 293.193907 111.249679 
L 293.518886 116.234436 
L 293.843866 119.038105 
L 294.168845 113.134808 
L 294.493825 112.417993 
L 294.818804 109.427733 
L 295.143784 120.843155 
L 295.468763 125.805598 
L 295.793743 111.779661 
L 296.118722 121.272104 
L 296.443702 108.610374 
L 296.768681 122.156589 
L 297.093661 118.811122 
L 297.41864 126.739123 
L 297.74362 101.855051 
L 298.0686 118.041124 
L 298.393579 115.621484 
L 298.718559 118.488721 
L 299.043538 116.644899 
L 299.368518 109.74956 
L 299.693497 114.433082 
L 300.018477 115.18877 
L 300.343456 107.432112 
L 300.668436 123.848311 
L 300.993415 107.813954 
L 301.318395 104.822881 
L 301.643374 124.082477 
L 301.968354 113.369174 
L 302.293333 123.428786 
L 302.618313 128.750664 
L 302.943292 100.184581 
L 303.268272 91.324914 
L 303.593251 89.819006 
L 303.918231 97.082871 
L 304.24321 100.297238 
L 304.56819 97.539142 
L 304.89317 99.335822 
L 305.218149 98.777867 
L 305.543129 110.261936 
L 305.868108 75.83207 
L 306.193088 75.056502 
L 306.518067 60.213209 
L 306.843047 69.927674 
L 307.168026 75.206806 
L 307.817985 72.181789 
L 308.467944 87.751122 
L 308.792924 79.02254 
L 309.442883 73.568261 
L 309.767862 78.946577 
L 310.092842 80.277277 
L 310.417821 76.029461 
L 310.742801 73.97824 
L 311.067781 70.639612 
L 311.39276 75.891412 
L 311.71774 71.499171 
L 312.042719 80.775852 
L 312.367699 69.075776 
L 312.692678 74.693526 
L 313.017658 83.126706 
L 313.342637 75.958213 
L 313.667617 73.63765 
L 313.992596 81.191608 
L 314.317576 69.640663 
L 314.642555 76.471203 
L 314.967535 71.383719 
L 315.292514 80.742766 
L 315.617494 72.314825 
L 315.942473 69.624929 
L 316.267453 77.160164 
L 316.592432 75.556613 
L 316.917412 77.999988 
L 317.242391 72.160825 
L 317.567371 74.10751 
L 317.892351 71.081515 
L 318.21733 74.69067 
L 318.54231 82.513815 
L 318.867289 82.77964 
L 319.517248 71.330671 
L 319.842228 59.695497 
L 320.817166 87.378712 
L 321.142146 70.980239 
L 321.467125 74.18489 
L 321.792105 82.122894 
L 322.117084 68.519557 
L 322.442064 74.241842 
L 322.767043 76.950175 
L 323.092023 86.761664 
L 323.417002 68.045536 
L 323.741982 73.84367 
L 324.066962 75.889496 
L 324.391941 80.491453 
L 324.716921 76.649843 
L 325.0419 66.285025 
L 325.36688 70.898046 
L 325.691859 61.327547 
L 326.341818 72.024243 
L 326.666798 68.463591 
L 326.991777 73.211197 
L 327.316757 83.614129 
L 327.966716 72.098004 
L 328.291695 80.281764 
L 328.616675 77.594426 
L 328.941654 82.300686 
L 329.266634 63.343442 
L 329.591613 82.765166 
L 329.916593 80.968771 
L 330.241572 79.975393 
L 330.566552 67.968186 
L 330.891532 66.964976 
L 331.216511 77.820228 
L 331.541491 70.524323 
L 331.86647 80.003637 
L 332.19145 74.221616 
L 332.516429 57.364945 
L 332.841409 68.13078 
L 333.491368 82.786149 
L 333.816347 76.160495 
L 334.466306 88.328269 
L 334.791286 70.302627 
L 335.116265 70.452326 
L 335.441245 72.920441 
L 335.766224 67.75903 
L 336.091204 85.001263 
L 336.416183 65.185839 
L 336.741163 81.200367 
L 337.066143 71.756177 
L 337.391122 71.258198 
L 337.716102 67.237092 
L 338.041081 61.287038 
L 338.366061 71.942347 
L 339.01602 81.358839 
L 339.340999 72.506828 
L 339.665979 79.648948 
L 339.990958 82.941343 
L 340.640917 69.839913 
L 341.290876 80.971726 
L 341.615856 73.257963 
L 341.940835 82.203193 
L 342.265815 83.973645 
L 342.590794 64.754369 
L 342.915774 72.604487 
L 343.240753 61.389616 
L 343.565733 83.691266 
L 343.890713 67.478797 
L 344.215692 75.313919 
L 344.540672 56.874709 
L 344.865651 75.562884 
L 345.190631 77.041317 
L 345.51561 71.436445 
L 345.84059 72.952507 
L 346.165569 77.13608 
L 346.490549 68.286791 
L 346.815528 69.717044 
L 347.140508 68.454989 
L 347.465487 71.587509 
L 347.790467 78.753226 
L 348.115446 78.692701 
L 348.440426 70.344411 
L 348.765405 80.234064 
L 349.090385 63.211108 
L 349.415364 73.962524 
L 349.740344 79.298842 
L 350.065324 67.47462 
L 350.390303 74.302635 
L 350.715283 66.444277 
L 351.040262 72.80516 
L 351.365242 62.757613 
L 352.015201 88.271533 
L 352.34018 83.959651 
L 352.66516 84.719289 
L 352.990139 70.364412 
L 353.315119 62.493935 
L 353.640098 75.431287 
L 353.965078 82.785802 
L 354.290057 69.763906 
L 354.615037 71.243559 
L 354.940016 76.632768 
L 355.264996 71.538905 
L 355.589975 74.130904 
L 355.914955 81.59714 
L 356.239934 69.7465 
L 356.564914 77.430652 
L 356.889894 80.302692 
L 357.214873 75.697792 
L 357.539853 64.050536 
L 357.864832 61.504842 
L 358.189812 65.134154 
L 358.514791 77.367611 
L 358.839771 80.80284 
L 359.16475 71.952073 
L 359.48973 75.218043 
L 359.814709 73.274804 
L 360.139689 81.46924 
L 360.464668 79.892983 
L 360.789648 81.117357 
L 361.114627 69.184345 
L 361.439607 67.314825 
L 361.764586 78.578739 
L 362.089566 70.411409 
L 362.414545 70.03103 
L 362.739525 78.948673 
L 363.389484 68.921426 
L 363.714464 80.722109 
L 364.039443 66.127316 
L 364.364423 75.503148 
L 364.689402 73.789055 
L 365.014382 75.7496 
L 365.339361 83.737379 
L 365.664341 71.983737 
L 366.3143 76.819788 
L 366.639279 75.592049 
L 366.964259 71.478479 
L 367.614218 77.595093 
L 368.264177 69.304042 
L 368.914136 79.311774 
L 369.239115 68.808816 
L 369.564095 76.085653 
L 369.889075 70.393681 
L 370.539034 80.267895 
L 370.864013 82.403359 
L 371.188993 79.985171 
L 371.513972 75.683705 
L 371.838952 88.713763 
L 372.163931 71.699896 
L 372.488911 67.074116 
L 372.81389 75.735482 
L 373.13887 81.334352 
L 373.463849 84.932913 
L 373.788829 72.717817 
L 374.113808 71.512908 
L 374.438788 73.800558 
L 374.763767 69.67715 
L 375.088747 78.512875 
L 375.738706 72.392262 
L 376.063686 75.631357 
L 376.388665 71.02732 
L 376.713645 70.973173 
L 377.363604 80.394848 
L 377.688583 78.848267 
L 378.013563 67.100366 
L 378.338542 81.945399 
L 378.663522 73.786709 
L 378.988501 80.603737 
L 379.313481 59.279449 
L 379.63846 78.268358 
L 379.96344 70.081569 
L 380.288419 80.424119 
L 380.613399 53.568 
L 380.938378 82.797862 
L 381.263358 71.871427 
L 381.588337 82.261036 
L 381.913317 68.884159 
L 382.238296 82.278772 
L 382.563276 77.035228 
L 382.888256 84.469156 
L 383.213235 76.739544 
L 383.538215 74.168225 
L 383.863194 62.932373 
L 384.188174 89.038765 
L 384.513153 70.654782 
L 385.163112 78.102931 
L 385.488092 75.542034 
L 385.813071 71.650256 
L 386.138051 74.414483 
L 386.46303 74.456643 
L 386.78801 79.211299 
L 387.112989 76.760982 
L 387.437969 71.048091 
L 387.762948 80.126819 
L 388.087928 77.522356 
L 388.412907 73.698291 
L 388.737887 72.068099 
L 389.062867 71.680598 
L 389.387846 75.476156 
L 389.712826 87.305023 
L 390.037805 69.256763 
L 390.687764 66.46151 
L 391.012744 71.981011 
L 391.337723 68.728033 
L 391.987682 81.36536 
L 392.312662 75.304074 
L 392.637641 75.784093 
L 392.962621 67.770942 
L 393.2876 69.053389 
L 393.61258 77.546114 
L 393.937559 76.941633 
L 394.262539 74.513534 
L 394.587518 73.765654 
L 394.912498 65.105797 
L 395.237477 77.409634 
L 395.562457 65.959721 
L 395.887437 83.221491 
L 396.212416 78.647176 
L 396.537396 63.53496 
L 396.862375 71.763038 
L 397.187355 73.643399 
L 397.512334 70.50106 
L 397.837314 75.68591 
L 398.162293 73.945641 
L 398.487273 72.902 
L 398.487273 72.902 
" style="fill:none;stroke:#008000;stroke-linecap:square;stroke-opacity:0.5;stroke-width:2;"/>
   </g>
   <g id="line2d_26">
    <path clip-path="url(#pf03fe66c67)" d="M 73.832727 278.320787 
L 104.705782 278.320787 
L 105.030762 257.905936 
L 160.92724 257.905936 
L 161.252219 237.491086 
L 166.451892 237.491086 
L 166.776871 217.076236 
L 211.949025 217.076236 
L 212.274005 196.661385 
L 224.948206 196.661385 
L 225.273186 176.246535 
L 244.446978 176.246535 
L 244.771957 155.831685 
L 256.47122 155.831685 
L 256.7962 135.416834 
L 274.020115 135.416834 
L 274.345094 115.001984 
L 302.618313 115.001984 
L 302.943292 94.587134 
L 305.543129 94.587134 
L 305.868108 74.172283 
L 398.487273 74.172283 
L 398.487273 74.172283 
" style="fill:none;stroke:#ff0000;stroke-linecap:square;stroke-width:3;"/>
   </g>
   <g id="line2d_27">
    <path clip-path="url(#pf03fe66c67)" d="M 73.832727 279.155848 
L 104.705782 279.155848 
L 105.030762 257.719899 
L 160.92724 257.719899 
L 161.252219 238.325468 
L 166.451892 238.325468 
L 166.776871 216.889519 
L 211.949025 216.889519 
L 212.274005 197.495089 
L 224.948206 197.495089 
L 225.273186 178.100658 
L 244.446978 178.100658 
L 244.771957 157.685468 
L 256.47122 157.685468 
L 256.7962 136.249519 
L 274.020115 136.249519 
L 274.345094 114.81357 
L 302.618313 114.81357 
L 302.943292 96.439899 
L 305.543129 96.439899 
L 305.868108 73.98319 
L 398.487273 73.98319 
L 398.487273 73.98319 
" style="fill:none;stroke:#0000ff;stroke-dasharray:11.1,4.8;stroke-dashoffset:0;stroke-width:3;"/>
   </g>
   <g id="patch_3">
    <path d="M 57.6 307.584 
L 57.6 41.472 
" style="fill:none;stroke:#000000;stroke-linecap:square;stroke-linejoin:miter;stroke-width:0.8;"/>
   </g>
   <g id="patch_4">
    <path d="M 414.72 307.584 
L 414.72 41.472 
" style="fill:none;stroke:#000000;stroke-linecap:square;stroke-linejoin:miter;stroke-width:0.8;"/>
   </g>
   <g id="patch_5">
    <path d="M 57.6 307.584 
L 414.72 307.584 
" style="fill:none;stroke:#000000;stroke-linecap:square;stroke-linejoin:miter;stroke-width:0.8;"/>
   </g>
   <g id="patch_6">
    <path d="M 57.6 41.472 
L 414.72 41.472 
" style="fill:none;stroke:#000000;stroke-linecap:square;stroke-linejoin:miter;stroke-width:0.8;"/>
   </g>
   <g id="text_15">
    <!-- Step Signal &amp; Estimate -->
    <g transform="translate(167.165625 22.034625)scale(0.12 -0.12)">
     <defs>
      <path d="M 1556 2509 
Q 1272 2256 1139 2004 
Q 1006 1753 1006 1478 
Q 1006 1022 1337 719 
Q 1669 416 2169 416 
Q 2466 416 2725 514 
Q 2984 613 3213 813 
L 1556 2509 
z
M 1997 2859 
L 3584 1234 
Q 3769 1513 3872 1830 
Q 3975 2147 3994 2503 
L 4575 2503 
Q 4538 2091 4375 1687 
Q 4213 1284 3922 891 
L 4794 0 
L 4006 0 
L 3559 459 
Q 3234 181 2878 45 
Q 2522 -91 2113 -91 
Q 1359 -91 881 339 
Q 403 769 403 1441 
Q 403 1841 612 2192 
Q 822 2544 1241 2853 
Q 1091 3050 1012 3245 
Q 934 3441 934 3628 
Q 934 4134 1281 4442 
Q 1628 4750 2203 4750 
Q 2463 4750 2720 4694 
Q 2978 4638 3244 4525 
L 3244 3956 
Q 2972 4103 2725 4179 
Q 2478 4256 2266 4256 
Q 1938 4256 1733 4082 
Q 1528 3909 1528 3634 
Q 1528 3475 1620 3314 
Q 1713 3153 1997 2859 
z
" id="DejaVuSans-26" transform="scale(0.015625)"/>
      <path d="M 628 4666 
L 3578 4666 
L 3578 4134 
L 1259 4134 
L 1259 2753 
L 3481 2753 
L 3481 2222 
L 1259 2222 
L 1259 531 
L 3634 531 
L 3634 0 
L 628 0 
L 628 4666 
z
" id="DejaVuSans-45" transform="scale(0.015625)"/>
      <path d="M 2834 3397 
L 2834 2853 
Q 2591 2978 2328 3040 
Q 2066 3103 1784 3103 
Q 1356 3103 1142 2972 
Q 928 2841 928 2578 
Q 928 2378 1081 2264 
Q 1234 2150 1697 2047 
L 1894 2003 
Q 2506 1872 2764 1633 
Q 3022 1394 3022 966 
Q 3022 478 2636 193 
Q 2250 -91 1575 -91 
Q 1294 -91 989 -36 
Q 684 19 347 128 
L 347 722 
Q 666 556 975 473 
Q 1284 391 1588 391 
Q 1994 391 2212 530 
Q 2431 669 2431 922 
Q 2431 1156 2273 1281 
Q 2116 1406 1581 1522 
L 1381 1569 
Q 847 1681 609 1914 
Q 372 2147 372 2553 
Q 372 3047 722 3315 
Q 1072 3584 1716 3584 
Q 2034 3584 2315 3537 
Q 2597 3491 2834 3397 
z
" id="DejaVuSans-73" transform="scale(0.015625)"/>
     </defs>
     <use xlink:href="#DejaVuSans-53"/>
     <use x="63.476562" xlink:href="#DejaVuSans-74"/>
     <use x="102.685547" xlink:href="#DejaVuSans-65"/>
     <use x="164.208984" xlink:href="#DejaVuSans-70"/>
     <use x="227.685547" xlink:href="#DejaVuSans-20"/>
     <use x="259.472656" xlink:href="#DejaVuSans-53"/>
     <use x="322.949219" xlink:href="#DejaVuSans-69"/>
     <use x="350.732422" xlink:href="#DejaVuSans-67"/>
     <use x="414.208984" xlink:href="#DejaVuSans-6e"/>
     <use x="477.587891" xlink:href="#DejaVuSans-61"/>
     <use x="538.867188" xlink:href="#DejaVuSans-6c"/>
     <use x="566.650391" xlink:href="#DejaVuSans-20"/>
     <use x="598.4375" xlink:href="#DejaVuSans-26"/>
     <use x="676.416016" xlink:href="#DejaVuSans-20"/>
     <use x="708.203125" xlink:href="#DejaVuSans-45"/>
     <use x="771.386719" xlink:href="#DejaVuSans-73"/>
     <use x="823.486328" xlink:href="#DejaVuSans-74"/>
     <use x="862.695312" xlink:href="#DejaVuSans-69"/>
     <use x="890.478516" xlink:href="#DejaVuSans-6d"/>
     <use x="987.890625" xlink:href="#DejaVuSans-61"/>
     <use x="1049.169922" xlink:href="#DejaVuSans-74"/>
     <use x="1088.378906" xlink:href="#DejaVuSans-65"/>
    </g>
    <!--  Stage 2 -->
    <g transform="translate(211.189687 35.472)scale(0.12 -0.12)">
     <use xlink:href="#DejaVuSans-20"/>
     <use x="31.787109" xlink:href="#DejaVuSans-53"/>
     <use x="95.263672" xlink:href="#DejaVuSans-74"/>
     <use x="134.472656" xlink:href="#DejaVuSans-61"/>
     <use x="195.751953" xlink:href="#DejaVuSans-67"/>
     <use x="259.228516" xlink:href="#DejaVuSans-65"/>
     <use x="320.751953" xlink:href="#DejaVuSans-20"/>
     <use x="352.539062" xlink:href="#DejaVuSans-32"/>
    </g>
   </g>
   <g id="legend_1">
    <g id="patch_7">
     <path d="M 64.6 93.506375 
L 179.340625 93.506375 
Q 181.340625 93.506375 181.340625 91.506375 
L 181.340625 48.472 
Q 181.340625 46.472 179.340625 46.472 
L 64.6 46.472 
Q 62.6 46.472 62.6 48.472 
L 62.6 91.506375 
Q 62.6 93.506375 64.6 93.506375 
z
" style="fill:#ffffff;opacity:0.8;stroke:#cccccc;stroke-linejoin:miter;"/>
    </g>
    <g id="line2d_28">
     <path d="M 66.6 54.570438 
L 86.6 54.570438 
" style="fill:none;stroke:#008000;stroke-linecap:square;stroke-opacity:0.5;stroke-width:2;"/>
    </g>
    <g id="line2d_29"/>
    <g id="text_16">
     <!-- Measured Signal -->
     <g transform="translate(94.6 58.070438)scale(0.1 -0.1)">
      <defs>
       <path d="M 2631 2963 
Q 2534 3019 2420 3045 
Q 2306 3072 2169 3072 
Q 1681 3072 1420 2755 
Q 1159 2438 1159 1844 
L 1159 0 
L 581 0 
L 581 3500 
L 1159 3500 
L 1159 2956 
Q 1341 3275 1631 3429 
Q 1922 3584 2338 3584 
Q 2397 3584 2469 3576 
Q 2541 3569 2628 3553 
L 2631 2963 
z
" id="DejaVuSans-72" transform="scale(0.015625)"/>
      </defs>
      <use xlink:href="#DejaVuSans-4d"/>
      <use x="86.279297" xlink:href="#DejaVuSans-65"/>
      <use x="147.802734" xlink:href="#DejaVuSans-61"/>
      <use x="209.082031" xlink:href="#DejaVuSans-73"/>
      <use x="261.181641" xlink:href="#DejaVuSans-75"/>
      <use x="324.560547" xlink:href="#DejaVuSans-72"/>
      <use x="363.423828" xlink:href="#DejaVuSans-65"/>
      <use x="424.947266" xlink:href="#DejaVuSans-64"/>
      <use x="488.423828" xlink:href="#DejaVuSans-20"/>
      <use x="520.210938" xlink:href="#DejaVuSans-53"/>
      <use x="583.6875" xlink:href="#DejaVuSans-69"/>
      <use x="611.470703" xlink:href="#DejaVuSans-67"/>
      <use x="674.947266" xlink:href="#DejaVuSans-6e"/>
      <use x="738.326172" xlink:href="#DejaVuSans-61"/>
      <use x="799.605469" xlink:href="#DejaVuSans-6c"/>
     </g>
    </g>
    <g id="line2d_30">
     <path d="M 66.6 69.248563 
L 86.6 69.248563 
" style="fill:none;stroke:#ff0000;stroke-linecap:square;stroke-width:3;"/>
    </g>
    <g id="line2d_31"/>
    <g id="text_17">
     <!-- Ground Truth -->
     <g transform="translate(94.6 72.748563)scale(0.1 -0.1)">
      <defs>
       <path d="M 3809 666 
L 3809 1919 
L 2778 1919 
L 2778 2438 
L 4434 2438 
L 4434 434 
Q 4069 175 3628 42 
Q 3188 -91 2688 -91 
Q 1594 -91 976 548 
Q 359 1188 359 2328 
Q 359 3472 976 4111 
Q 1594 4750 2688 4750 
Q 3144 4750 3555 4637 
Q 3966 4525 4313 4306 
L 4313 3634 
Q 3963 3931 3569 4081 
Q 3175 4231 2741 4231 
Q 1884 4231 1454 3753 
Q 1025 3275 1025 2328 
Q 1025 1384 1454 906 
Q 1884 428 2741 428 
Q 3075 428 3337 486 
Q 3600 544 3809 666 
z
" id="DejaVuSans-47" transform="scale(0.015625)"/>
       <path d="M -19 4666 
L 3928 4666 
L 3928 4134 
L 2272 4134 
L 2272 0 
L 1638 0 
L 1638 4134 
L -19 4134 
L -19 4666 
z
" id="DejaVuSans-54" transform="scale(0.015625)"/>
       <path d="M 3513 2113 
L 3513 0 
L 2938 0 
L 2938 2094 
Q 2938 2591 2744 2837 
Q 2550 3084 2163 3084 
Q 1697 3084 1428 2787 
Q 1159 2491 1159 1978 
L 1159 0 
L 581 0 
L 581 4863 
L 1159 4863 
L 1159 2956 
Q 1366 3272 1645 3428 
Q 1925 3584 2291 3584 
Q 2894 3584 3203 3211 
Q 3513 2838 3513 2113 
z
" id="DejaVuSans-68" transform="scale(0.015625)"/>
      </defs>
      <use xlink:href="#DejaVuSans-47"/>
      <use x="77.490234" xlink:href="#DejaVuSans-72"/>
      <use x="116.353516" xlink:href="#DejaVuSans-6f"/>
      <use x="177.535156" xlink:href="#DejaVuSans-75"/>
      <use x="240.914062" xlink:href="#DejaVuSans-6e"/>
      <use x="304.292969" xlink:href="#DejaVuSans-64"/>
      <use x="367.769531" xlink:href="#DejaVuSans-20"/>
      <use x="399.556641" xlink:href="#DejaVuSans-54"/>
      <use x="445.890625" xlink:href="#DejaVuSans-72"/>
      <use x="487.003906" xlink:href="#DejaVuSans-75"/>
      <use x="550.382812" xlink:href="#DejaVuSans-74"/>
      <use x="589.591797" xlink:href="#DejaVuSans-68"/>
     </g>
    </g>
    <g id="line2d_32">
     <path d="M 66.6 83.926688 
L 86.6 83.926688 
" style="fill:none;stroke:#0000ff;stroke-dasharray:11.1,4.8;stroke-dashoffset:0;stroke-width:3;"/>
    </g>
    <g id="line2d_33"/>
    <g id="text_18">
     <!-- Estimate -->
     <g transform="translate(94.6 87.426688)scale(0.1 -0.1)">
      <use xlink:href="#DejaVuSans-45"/>
      <use x="63.183594" xlink:href="#DejaVuSans-73"/>
      <use x="115.283203" xlink:href="#DejaVuSans-74"/>
      <use x="154.492188" xlink:href="#DejaVuSans-69"/>
      <use x="182.275391" xlink:href="#DejaVuSans-6d"/>
      <use x="279.6875" xlink:href="#DejaVuSans-61"/>
      <use x="340.966797" xlink:href="#DejaVuSans-74"/>
      <use x="380.175781" xlink:href="#DejaVuSans-65"/>
     </g>
    </g>
   </g>
  </g>
 </g>
 <defs>
  <clipPath id="pf03fe66c67">
   <rect height="266.112" width="357.12" x="57.6" y="41.472"/>
  </clipPath>
 </defs>
</svg>
